<svg id="Capa_1" enable-background="new 0 0 512 512" height="512" viewBox="0 0 512 512" width="512" xmlns="http://www.w3.org/2000/svg"><path d="m381.977 300.234 49.351-49.351-88.608-44.297h-86.72-86.719l-88.608 44.297 49.351 49.351c-38.57 3.062-69.024 35.42-69.024 74.766v137h195 195v-137c0-39.346-30.454-71.704-69.023-74.766z" fill="#596c76"/><path d="m451 375c0-39.346-30.454-71.704-69.023-74.766l49.351-49.351-88.608-44.297h-86.72v305.414h195z" fill="#465a61"/><path d="m310.712 0c-22.603 0-33.237 12.524-40.269 20.83-5.918 6.958-8.086 9.17-14.443 9.17-6.343 0-8.525-2.212-14.443-9.185-7.046-8.291-17.696-20.815-40.269-20.815-27.729 0-50.288 22.559-50.288 50.288v114.712h105 105v-114.712c0-27.729-22.559-50.288-50.288-50.288z" fill="#596c76"/><path d="m361 50.288c0-27.729-22.559-50.288-50.288-50.288-22.603 0-33.237 12.524-40.269 20.83-5.918 6.958-8.086 9.17-14.443 9.17v135h105z" fill="#465a61"/><path d="m256 165h-105v30c0 57.99 47.01 105 105 105s105-47.01 105-105v-30z" fill="#ffcebf"/><path d="m361 195v-30h-105v135c57.99 0 105-47.01 105-105z" fill="#ffbfab"/><path d="m256 150h-165v30h165 165v-30z" fill="#465a61"/><g fill="#3b4a51"><path d="m256 150h165v30h-165z"/><path d="m301 420h30v30h-30z"/><path d="m301 360h30v30h-30z"/></g><path d="m181 420h30v30h-30z" fill="#465a61"/><path d="m181 360h30v30h-30z" fill="#465a61"/></svg>