<svg xmlns="http://www.w3.org/2000/svg" viewBox="0 0 1249 1000"><defs><style>.cls-1{fill:#ddaf89;}.cls-2{fill:#ffdbdb;}.cls-3{fill:#dfe3e5;}.cls-4{fill:#a2d3ee;}.cls-5{fill:#495059;}.cls-6{fill:#7f9ae6;}.cls-7{fill:#f3e5b7;}.cls-8{fill:#f6e06a;}.cls-9{font-size:181px;fill:#596c76;font-family:Roboto-Medium, Roboto;font-weight:500;}.cls-10{fill:#000;}</style></defs><title>logo</title><g id="Layer_1" data-name="Layer 1"><path class="cls-1" d="M385.7,240.53l-28.2,86.59,25.1,67.26,72.77,38.26,107.54-6,83.77-31.82L665,371.34s7.93-13.41,7.93-21.93-8.11-81.49-8.11-81.49l-14-27.39Z"/><path class="cls-1" d="M500.08,558.3l-3.62,39.87L489.38,626l-21.52,5.64L453,615.92s-3.2-5.08-2.77-21.65L451.58,543Z"/><ellipse class="cls-2" cx="433.49" cy="300.6" rx="33.63" ry="27.24"/><ellipse class="cls-2" cx="633.77" cy="300.6" rx="33.63" ry="27.24"/><path d="M923.73,590.08c11.4,9.64,11.65,23.6.53,33.52-9.1,8.12-20.44,11.18-32.06,13.16-6.05,1-12.23,1.27-16.14,1.64-17.67-.37-32.76-2.44-46.48-10-14-7.8-18.82-20.73-11.25-32.05a37.55,37.55,0,0,1,12.79-11.16c12.59-7,26.54-9,40.8-9.16,15.24-.1,30.1,1.86,43.9,8.88A41,41,0,0,1,923.73,590.08Zm-15,22.69c7.51-4,7.44-7.17,0-11.38-10.86-6.17-22.87-7.36-35-7.54-12.8.19-25.39,1.45-36.56,8.48-5.56,3.51-5.86,6.8.06,9.35,8.24,3.55,17,6.63,25.83,7.9C878.7,621.85,894.34,620.48,908.69,612.77Z"/><path class="cls-3" d="M908.71,601.39c7.42,4.21,7.49,7.36,0,11.38-14.35,7.71-30,9.08-45.69,6.81-8.82-1.27-17.59-4.35-25.83-7.9-5.92-2.55-5.62-5.84-.06-9.35,11.17-7,23.76-8.29,36.56-8.48C885.84,594,897.85,595.22,908.71,601.39Z"/><path d="M820.23,561.94c.09,11.3-7.5,17.91-16.8,22.6-1.65.84-3.3,1.6-5,2.29a77.55,77.55,0,0,1-7.45,2.63,4.58,4.58,0,0,1-.53.14c-2.45.71-4.91,1.3-7.41,1.78a103.22,103.22,0,0,1-13.3,1.62c-2.8.17-5.62.23-8.44.23-3.72,0-7.39-.13-11-.43l-2.84-.28a90.43,90.43,0,0,1-13.29-2.47l-.35-.09c-1.64-.44-3.27-1-4.88-1.51s-3.45-1.26-5.15-2-3.38-1.52-5-2.4c-8.88-4.69-15.93-11.31-15.87-22s6.91-17.69,16-21.82c28.08-12.73,56.5-12.76,84.67-.35C812.87,544,820.14,551,820.23,561.94Zm-26.18,7.16c3.13-1.58,5.51-4.66,8.24-7.07-2.81-2.34-5.24-5.66-8.48-6.85a98,98,0,0,0-20.54-5.47c-13.89-1.91-27.82-1.34-40.94,4.12-4.25,1.78-7.67,5.58-11.48,8.44,3.88,2.81,7.39,6.87,11.74,8.17,9.38,2.81,19.19,4.2,28.82,6.17C772.88,575.42,783.92,574.24,794.05,569.1Z"/><path class="cls-3" d="M802.29,562c-2.73,2.41-5.11,5.49-8.24,7.07-10.13,5.14-21.17,6.32-32.64,7.51-9.63-2-19.44-3.36-28.82-6.17-4.35-1.3-7.86-5.36-11.74-8.17,3.81-2.86,7.23-6.66,11.48-8.44,13.12-5.46,27-6,40.94-4.12a98,98,0,0,1,20.54,5.47C797.05,556.37,799.48,559.69,802.29,562Z"/><path d="M770.61,328.53c19.33,14.35,27.5,33.92,23.27,57.4-4.33,24-19.38,39.25-42.82,46.33a10.33,10.33,0,0,0-5.76,5.54c-5.72,14.8-11.5,29.6-16.3,44.72-4.94,15.59-18.52,25.31-34.36,22.76-5-.82-10.55,1.4-15.86,1.94a99.47,99.47,0,0,1-48.46-6.86c-6.69,8.4-12,17.76-19.73,24.14-9.79,8-10.64,16.65-9.75,28.33,1.47,18.94.88,38.12,0,57.13-.84,17.48-16.58,30.86-33.82,30.26A32.75,32.75,0,0,1,535.13,608c-.29-14.67-.06-29.35-.06-44.63l-27,1.25c-.11,1.76-.24,3.68-.33,5.57-.67,13.1-1.05,26.23-2.08,39.3-1.07,13.47-8.3,23.18-20.7,28.21-12.2,5-23.79,2.87-33.93-5.75-5-4.22-5.78-9.42-2.41-13.53,3.22-3.9,8-4.08,13.31-.54,13.16,8.83,25,3.09,26-12.71.91-14.25,1.54-28.49,2.28-42.59L459,552.86c0,6.34,0,12.38,0,18.42,0,4.57.06,9.15-.33,13.71-.51,5.94-4.53,9.63-9.54,9.27-4.84-.34-8.08-4.1-8.14-9.93-.11-12.29,0-24.58,0-37.62l-8.9,5.08c-27,15.29-54.58,15.17-82.31,2.66-13.72-6.2-19.35-22-13.79-35.79a28,28,0,0,1,34.17-16.46c2.47.73,4.9,1.6,7.34,2.47,8.64,3.06,17.07,3,25.49-1.87-4.06-7.44-6.53-15-14.95-20.22-17.13-10.67-19.16-33.73-5.7-48.77,2.25-2.52,2.49-4.52,1.91-7.84-1-5.55-.33-11.36-.78-17-.19-2.45-.67-5.63-2.28-7.12C350,373,343.52,337.25,352.72,297.65c3.48-15,9-29.49,13.54-44.11-4,.51-8.81,1.82-13.57,1.6-14.68-.72-25.57-9.92-29.62-24.23a27.79,27.79,0,0,0-1.1-2.73V217.44c4.33-16.77,18.74-25,30.45-35.37a83,83,0,0,1,46.15-20.32c4.66-.56,6.32-2.47,7.3-6.69,1.74-7.53,4-15,6.2-22.36,7.17-23.73,26.62-34.94,50.74-29.2,9.65,2.3,19.28,4.69,28.84,7.38a86.34,86.34,0,0,0,47.6.07c9.54-2.67,19.2-5,28.82-7.36,24.2-6,44,5.38,51,29.42,2.3,7.81,4.63,15.61,6.63,23.49.8,3.14,2.07,4.6,5.47,5C651,163.75,668,172,682.69,185.36c5.73,5.21,11.87,10,17.28,15.55a31.8,31.8,0,0,1,4.39,39c-7.92,12.71-22.67,18.12-37.28,13.67-.93-.28-1.9-.49-3.72-1C666,259.13,668.5,265,670.68,271c7.57,20.86,12.78,42.17,11.38,64.64a47.27,47.27,0,0,1-.39,4.75c-.95,6-4.93,9.58-9.84,9.06s-8.35-4.54-7.81-10.77c1.76-20.64-2.51-40.32-9.44-59.51-2.69-7.44-6.51-14.48-9.42-21.84-1.89-4.76-4.8-6.21-9.92-6.2q-95.1.27-190.21.12c-17.08,0-34.18-.09-51.27.11-2,0-5,1.06-5.84,2.56-12.78,23.95-21.49,49.2-21,76.68.49,31.16,16,53.68,42.19,69.44,4.55,2.73,9.39,5,14.53,7.63,6.08-7.71,11.8-15,17.61-22.31,10.4-13,22.09-24.42,37.62-31.34,8.74-3.88,17.43-4.84,26.63-1.92,1.78.56,4.26-.21,6.13-1,2.86-1.28,5.3-3.91,8.24-4.58,5.5-1.24,6.83-4.3,6.23-9.36a83,83,0,0,1-.08-9.61c-6.37-2.87-12.56-5.55-18.65-8.41-15.73-7.38-18-24.3-4.81-35.72,9.05-7.84,20.24-9,31.38-8.76a96,96,0,0,1,24.55,3.68,23.58,23.58,0,0,1,17.31,19.4c1.42,8.08-2.94,16.16-10.72,20.18a129.37,129.37,0,0,1-16.26,7.32c-4.17,1.49-5.34,3.89-5,8,.3,3.31.06,6.67.06,9.81,4.52,1.4,8.63,2.27,12.39,3.93,4.57,2,6.37,5.9,5,10.81-1.33,4.6-5.75,6.84-10.92,5.62-9.33-2.21-18.62-4.19-27.83,2.1,4.95,8.95,6.4,18.31,3.31,28.05-2.65,8.31-7.94,14.46-15.52,18.84-4.51,2.59-8.74,5.7-13.09,8.6l.63,1.61c5.63.27,11.28.84,16.92.75,27.29-.42,54.34-2.59,80.45-11.41,21.85-7.41,41.44-18,55.38-37.27,3.87-5.34,9.09-6.34,13.35-3.22,4.57,3.36,5,8.66.57,14.07-4.78,5.81-10.19,11.11-15,16.89-1.27,1.52-1.77,4-2,6.09-.63,6.81-1.12,13.65-1.3,20.49-.06,1.92.54,4.63,1.87,5.68,9.9,7.75,21.06,8.5,32.71,4.81a6.16,6.16,0,0,0,3-3.11c1.19-2.49,1.73-5.32,3-7.76,4.76-9.22,4.3-16.93-1.42-26.63-13.72-23.27-6.64-52.77,15-71.31C719.59,314.12,749.87,313.13,770.61,328.53Zm6.59,46.94c.27-21.26-18.18-39.8-39.86-40a40.36,40.36,0,0,0-40.85,40.18c-.3,22.27,18,40.12,41.31,40.31C759,416.1,776.93,397.65,777.2,375.47Zm-66.84,105c6-15.45,11.46-31.09,17.16-46.66l-20.92-7.65c-5.68,15.62-11.35,30.81-16.68,46.12-2.32,6.62.53,12.52,6.36,14.67A10.67,10.67,0,0,0,710.36,480.52ZM687.8,232.27c4.3-5.19,4.76-13.07-.2-18-7.59-7.53-15.74-14.55-24-21.32-8.77-7.12-19-11.32-31.38-13.37,1.63,5.87,3.41,10.91,4.36,16.09.82,4.51,2.84,6,7.44,6.18,15,.69,24.9,13,23.4,27.86a7,7,0,0,0,2.72,5.43A13.57,13.57,0,0,0,687.8,232.27ZM674,489.57c-4.7-10.47-2.52-20.17.78-28.63-11-2.22-21.43-4.34-31.7-6.4-1.79,9-3.73,18.88-5.76,29.13C648.69,488.67,660.7,490.51,674,489.57ZM638.78,233.3c7.48,0,11.08-2.34,11-7s-3.54-6.74-11.22-6.78H393c-8.21,0-11.5,2-11.44,7s3.27,6.75,11.7,6.75H638.78ZM621.66,431.78a14.51,14.51,0,0,0,8.46-14.53c-11.65,4.58-22.81,9.77-34.46,13.35-11.84,3.63-24.17,5.68-36.23,8.39,3.57,4.11,6.94,8.22,10.64,12,.95,1,3.22,1.76,4.32,1.3C590.22,445.66,606.13,439.13,621.66,431.78Zm-210-230.54H619.53c-2.07-7.31-4-14-5.87-20.82H524.18c-33.8,0-67.59,0-101.37.12-2.09,0-5.48,1.16-6.05,2.64C414.61,188.86,413.36,194.87,411.64,201.24Zm191.9,304.88c13-15.61,20.26-33.67,20.93-54-13.11,5.29-25.78,11-38.86,15.38-6,2-8.67,4.24-9.38,10.87-2.32,21.53-18.58,36.43-39.48,37.33S498.44,502.9,494,481.92c-.62-2.94-1.42-4.26-4.66-4.81-11.32-1.91-22.55-4.38-33.84-6.47a8.33,8.33,0,0,0-5,.53c-11.23,5.78-22.34,11.75-34.66,18.29,4.82,6.63,9.21,14.06,14.89,20.3C476.38,560.17,560,558.39,603.54,506.12ZM422.36,162.23H608.94c-3.18-10.53-5.57-20.78-9.41-30.46-3.65-9.12-14-13.68-23.77-11.5s-19.68,4.6-29.39,7.38a109.16,109.16,0,0,1-62.14-.22c-9.5-2.81-19.18-5-28.86-7.11-10.26-2.26-20.79,2.82-24.35,12.48C427.56,142.23,425.29,152.1,422.36,162.23ZM583,607.39c.43-19.79.13-39.58.13-60-9.79,3.92-18.82,7.37-27.64,11.22-1.18.51-2,3.06-2,4.7-.36,14.07-.49,28.14-.69,42.23-.12,9.14,6,16.37,14.19,16.72C575.5,622.61,582.84,616.47,583,607.39Zm-24-133c.22-13-11.12-24.42-24.23-24.33a24,24,0,1,0,24.23,24.33ZM512,300.33c13.59,11.95,34.59,11.77,45.93-.15C550.72,289.28,519.67,289.16,512,300.33Zm-2.6,83.75c.17-10.1-8.56-17.84-17.44-15.25-6.32,1.85-13.12,4.57-17.82,8.93A260.63,260.63,0,0,0,447.19,407c-12.07,15.29-25.75,27.85-44.6,34.3-9.46,3.23-13.15,12.07-9.74,20.54,3.08,7.68,11.62,11.41,20.4,7.75a191.77,191.77,0,0,0,27.06-13.5c15.54-9.56,26.08-24.25,37-38.4,6.62-8.57,13.86-16.26,23.93-21C506.76,394.17,509.11,389.17,509.36,384.08Zm-12.84,73.24c3.69-5.05,7-10.38,10.87-16.31-7.56-.42-15-.88-22.43-1.22a3.84,3.84,0,0,0-2.65.94c-4.24,4.79-8.36,9.68-13.12,15.26,8.25,1.29,15.44,2.56,22.67,3.39A6,6,0,0,0,496.52,457.32Zm-68.11,75.74-16.19-14.53c-13.83,8.23-29.27,8.18-45,1.48a13.53,13.53,0,0,0-4-.93c-5.23-.46-8.86,1.9-10.67,6.71s-.15,9.09,4.11,11.84a39.75,39.75,0,0,0,8.69,3.75C387.61,549,408.55,546.46,428.41,533.06ZM398.76,180c-1.74.2-2.51.24-3.24.38-22.62,4.3-37.95,19.76-53,35.29-3.66,3.76-3.27,9.11-.76,14s6.72,7.29,11.9,7.77c5.9.55,10.46-3.08,10.22-7.6-.87-16.8,8-26.69,25-28.23,1.67-.15,4.15-1.6,4.64-3C395.51,192.74,396.9,186.75,398.76,180Z"/><path d="M798.44,586.83a77.55,77.55,0,0,1-7.45,2.63A77.55,77.55,0,0,0,798.44,586.83Z"/><path d="M790.46,589.6c-2.45.72-4.91,1.3-7.41,1.78C785.55,590.9,788,590.31,790.46,589.6Z"/><path class="cls-4" d="M737.34,335.43c21.68.24,40.13,18.78,39.86,40-.27,22.18-18.25,40.63-39.4,40.45-23.33-.19-41.61-18-41.31-40.31A40.36,40.36,0,0,1,737.34,335.43Z"/><path d="M727.85,607.62c9.89,9,9.7,22.25,0,31.44-8.55,8.11-19.41,11.38-30.6,13.48-6.8,1.29-13.79,1.53-17.64,1.93-17.7-.22-32-2.11-45.18-8.92a42.53,42.53,0,0,1-8.83-6c-10.66-9.57-10.61-23.06,0-32.7,7.29-6.59,16.22-9.79,25.62-11.89,21.22-4.78,42.22-4.2,62.56,4A47.72,47.72,0,0,1,727.85,607.62Zm-17.46,21.86c2.57-1.4,4.42-4.15,6.61-6.27-2.25-2.09-4.14-5.21-6.77-6.09-8-2.72-16.16-5.5-24.48-6.55-14.91-1.85-29.72-.49-43.4,6.53-2.62,1.35-4.48,4.14-6.69,6.26,2.25,2.09,4.19,4.75,6.81,6.18,10.56,5.74,22.19,6.8,34,6.93C688.2,636.29,699.85,635.23,710.39,629.48Z"/><path class="cls-3" d="M717,623.21c-2.19,2.12-4,4.87-6.61,6.27-10.54,5.75-22.19,6.81-34,7-11.77-.13-23.4-1.19-34-6.93-2.62-1.43-4.56-4.09-6.81-6.18,2.21-2.12,4.07-4.91,6.69-6.26,13.68-7,28.49-8.38,43.4-6.53,8.32,1,16.47,3.83,24.48,6.55C712.86,618,714.75,621.12,717,623.21Z"/><path class="cls-5" d="M727.52,433.86c-5.7,15.57-11.2,31.21-17.16,46.66A10.67,10.67,0,0,1,696.28,487c-5.83-2.15-8.68-8.05-6.36-14.67,5.33-15.31,11-30.5,16.68-46.12Z"/><path class="cls-5" d="M687.6,214.31c5,4.89,4.5,12.77.2,18a13.57,13.57,0,0,1-17.69,2.91,7,7,0,0,1-2.72-5.43c1.5-14.88-8.42-27.17-23.4-27.86-4.6-.22-6.62-1.67-7.44-6.18-.95-5.18-2.73-10.22-4.36-16.09,12.35,2,22.61,6.25,31.38,13.37C671.86,199.76,680,206.78,687.6,214.31Z"/><path class="cls-1" d="M674.73,460.94c-3.3,8.46-5.48,18.16-.78,28.63-13.25.94-25.26-.9-36.68-5.9,2-10.25,4-20.09,5.76-29.13C653.3,456.6,663.76,458.72,674.73,460.94Z"/><path class="cls-5" d="M649.74,226.3c.12,4.66-3.48,7-11,7H393.21c-8.43,0-11.65-1.88-11.7-6.75s3.23-7,11.44-7H638.52C646.2,219.56,649.61,221.61,649.74,226.3Z"/><path class="cls-6" d="M630.12,417.25a14.51,14.51,0,0,1-8.46,14.53c-15.53,7.35-31.44,13.88-47.27,20.54-1.1.46-3.37-.33-4.32-1.3-3.7-3.81-7.07-7.92-10.64-12,12.06-2.71,24.39-4.76,36.23-8.39C607.31,427,618.47,421.83,630.12,417.25Z"/><path d="M620.41,267.31c.42,2.54.45,5.12.67,7.87a72.92,72.92,0,0,1-.79,7.5c-1,4.81-4.38,7.09-9,6.83-4.39-.27-7.58-2.75-7.93-7.4a112.6,112.6,0,0,1-.11-14.23c.26-4.89,3.33-7.69,8-8C616.24,259.63,619.57,262.22,620.41,267.31Z"/><path class="cls-7" d="M619.53,201.24H411.64c1.72-6.37,3-12.38,5.12-18.06.57-1.48,4-2.64,6.05-2.64,33.78-.17,67.57-.12,101.37-.12h89.48C615.57,187.21,617.46,193.93,619.53,201.24Z"/><path class="cls-1" d="M624.47,452.14c-.67,20.31-7.9,38.37-20.93,54-43.58,52.27-127.16,54-172.84,3.64-5.68-6.24-10.07-13.67-14.89-20.3,12.32-6.54,23.43-12.51,34.66-18.29a8.33,8.33,0,0,1,5-.53c11.29,2.09,22.52,4.56,33.84,6.47,3.24.55,4,1.87,4.66,4.81,4.42,21,21.88,34.68,42.73,33.8s37.16-15.8,39.48-37.33c.71-6.63,3.37-8.85,9.38-10.87C598.69,463.13,611.36,457.43,624.47,452.14Z"/><path class="cls-5" d="M608.94,162.23H422.36c2.93-10.13,5.2-20,8.66-29.43,3.56-9.66,14.09-14.74,24.35-12.48,9.68,2.12,19.36,4.3,28.86,7.11a109.16,109.16,0,0,0,62.14.22c9.71-2.78,19.55-5.15,29.39-7.38s20.12,2.38,23.77,11.5C603.37,141.45,605.76,151.7,608.94,162.23Z"/><path class="cls-1" d="M583.17,547.35c0,20.46.3,40.25-.13,60-.2,9.08-7.54,15.22-16.06,14.83-8.18-.35-14.31-7.58-14.19-16.72.2-14.09.33-28.16.69-42.23,0-1.64.87-4.19,2-4.7C564.35,554.72,573.38,551.27,583.17,547.35Z"/><path class="cls-8" d="M534.84,450c13.11-.09,24.45,11.29,24.23,24.33A24,24,0,1,1,534.84,450Z"/><path class="cls-5" d="M557.89,300.18c-11.34,11.92-32.34,12.1-45.93.15C519.67,289.16,550.72,289.28,557.89,300.18Z"/><path class="cls-1" d="M491.92,368.83c8.88-2.59,17.61,5.15,17.44,15.25-.25,5.09-2.6,10.09-8.12,12.66-10.07,4.71-17.31,12.4-23.93,21-10.92,14.15-21.46,28.84-37,38.4a191.77,191.77,0,0,1-27.06,13.5c-8.78,3.66-17.32-.07-20.4-7.75-3.41-8.47.28-17.31,9.74-20.54,18.85-6.45,32.53-19,44.6-34.3a260.63,260.63,0,0,1,26.91-29.26C478.8,373.4,485.6,370.68,491.92,368.83Z"/><path class="cls-6" d="M507.39,441c-3.9,5.93-7.18,11.26-10.87,16.31a6,6,0,0,1-4.66,2.06c-7.23-.83-14.42-2.1-22.67-3.39,4.76-5.58,8.88-10.47,13.12-15.26a3.84,3.84,0,0,1,2.65-.94C492.39,440.13,499.83,440.59,507.39,441Z"/><path d="M467,274.66l.44,0a67.16,67.16,0,0,1-.93,8.21c-1.13,4.71-4.51,6.93-9.23,6.52-4.46-.41-7.36-3.08-7.74-7.61a101.45,101.45,0,0,1-.13-13.05c.25-5.42,3.6-8.92,8.42-8.9,5.41,0,8.37,3.12,9.13,8.29A47.1,47.1,0,0,1,467,274.66Z"/><path class="cls-5" d="M412.22,518.53l16.19,14.53c-19.86,13.4-40.8,15.91-63.06,8.32a39.75,39.75,0,0,1-8.69-3.75c-4.26-2.75-6-6.9-4.11-11.84s5.44-7.17,10.67-6.71a13.53,13.53,0,0,1,4,.93C383,526.71,398.39,526.76,412.22,518.53Z"/><path class="cls-5" d="M395.52,180.33c.73-.14,1.5-.18,3.24-.38-1.86,6.8-3.25,12.79-5.27,18.55-.49,1.42-3,2.87-4.64,3-17,1.54-25.89,11.43-25,28.23.24,4.52-4.32,8.15-10.22,7.6-5.18-.48-9.38-2.88-11.9-7.77s-2.9-10.2.76-14C357.57,200.09,372.9,184.63,395.52,180.33Z"/></g><g id="Layer_2" data-name="Layer 2"><text class="cls-9" transform="translate(130.56 847.05)">snoopy<tspan class="cls-10" x="590.19" y="0">.tech</tspan></text></g></svg>