<svg xmlns="http://www.w3.org/2000/svg" viewBox="0 0 1249 1000"><defs><style>.cls-1{fill:#ddaf89;}.cls-2{fill:#ffdbdb;}.cls-3{fill:#dfe3e5;}.cls-4{fill:#a2d3ee;}.cls-5{fill:#495059;}.cls-6{fill:#7f9ae6;}.cls-7{fill:#f3e5b7;}.cls-8{fill:#f6e06a;}.cls-9{font-size:181px;fill:#596c76;font-family:Roboto-Medium, Roboto;font-weight:500;}.cls-10{fill:#fffdfd;}</style></defs><title>logo-capital</title><g id="Layer_1" data-name="Layer 1"><path class="cls-1" d="M459.87,240.53l-28.19,86.59,25.09,67.26,72.77,38.26,107.54-6,83.77-31.82,18.31-23.44s7.93-13.41,7.93-21.93S739,267.92,739,267.92l-14-27.39Z"/><path class="cls-1" d="M574.25,558.3l-3.62,39.87L563.55,626,542,631.6l-14.85-15.68s-3.2-5.08-2.77-21.65L525.75,543Z"/><ellipse class="cls-2" cx="507.66" cy="300.6" rx="33.63" ry="27.24"/><ellipse class="cls-2" cx="707.94" cy="300.6" rx="33.63" ry="27.24"/><path d="M997.9,590.08c11.4,9.64,11.65,23.6.53,33.52-9.1,8.12-20.44,11.18-32.06,13.16-6,1-12.23,1.27-16.14,1.64-17.67-.37-32.75-2.44-46.48-10-14-7.8-18.82-20.73-11.25-32.05a37.55,37.55,0,0,1,12.79-11.16c12.59-7,26.54-9,40.8-9.16,15.24-.1,30.1,1.86,43.9,8.88A41,41,0,0,1,997.9,590.08Zm-15,22.69c7.52-4,7.44-7.17,0-11.38-10.86-6.17-22.87-7.36-35-7.54-12.8.19-25.39,1.45-36.56,8.48-5.56,3.51-5.86,6.8.06,9.35,8.24,3.55,17,6.63,25.84,7.9C952.87,621.85,968.51,620.48,982.86,612.77Z"/><path class="cls-3" d="M982.88,601.39c7.42,4.21,7.5,7.36,0,11.38-14.35,7.71-30,9.08-45.68,6.81-8.83-1.27-17.6-4.35-25.84-7.9-5.92-2.55-5.62-5.84-.06-9.35,11.17-7,23.76-8.29,36.56-8.48C960,594,972,595.22,982.88,601.39Z"/><path d="M894.4,561.94c.09,11.3-7.5,17.91-16.8,22.6-1.65.84-3.3,1.6-5,2.29a77.55,77.55,0,0,1-7.45,2.63,4.58,4.58,0,0,1-.53.14c-2.45.71-4.91,1.3-7.4,1.78A103.59,103.59,0,0,1,843.92,593c-2.8.17-5.62.23-8.44.23-3.72,0-7.39-.13-11.05-.43l-2.84-.28a90.43,90.43,0,0,1-13.29-2.47L808,590c-1.64-.44-3.27-1-4.88-1.51s-3.45-1.26-5.15-2-3.38-1.52-5-2.4c-8.88-4.69-15.93-11.31-15.87-22s6.91-17.69,16-21.82c28.08-12.73,56.5-12.76,84.67-.35C887,544,894.31,551,894.4,561.94Zm-26.18,7.16c3.13-1.58,5.51-4.66,8.24-7.07-2.81-2.34-5.24-5.66-8.48-6.85a98,98,0,0,0-20.54-5.47c-13.89-1.91-27.82-1.34-40.94,4.12-4.25,1.78-7.67,5.58-11.48,8.44,3.88,2.81,7.39,6.87,11.74,8.17,9.38,2.81,19.19,4.2,28.82,6.17C847.05,575.42,858.09,574.24,868.22,569.1Z"/><path class="cls-3" d="M876.46,562c-2.73,2.41-5.11,5.49-8.24,7.07-10.13,5.14-21.17,6.32-32.64,7.51-9.63-2-19.44-3.36-28.82-6.17-4.35-1.3-7.86-5.36-11.74-8.17,3.81-2.86,7.23-6.66,11.48-8.44,13.12-5.46,27-6,40.94-4.12A98,98,0,0,1,868,555.18C871.22,556.37,873.65,559.69,876.46,562Z"/><path d="M844.78,328.53c19.33,14.35,27.5,33.92,23.27,57.4-4.33,24-19.38,39.25-42.82,46.33a10.33,10.33,0,0,0-5.76,5.54c-5.72,14.8-11.5,29.6-16.3,44.72-4.94,15.59-18.52,25.31-34.36,22.76-5-.82-10.55,1.4-15.86,1.94a99.47,99.47,0,0,1-48.46-6.86c-6.69,8.4-12,17.76-19.73,24.14-9.79,8-10.64,16.65-9.75,28.33,1.47,18.94.88,38.12,0,57.13-.84,17.48-16.58,30.86-33.82,30.26A32.75,32.75,0,0,1,609.3,608c-.29-14.67-.06-29.35-.06-44.63l-27,1.25c-.11,1.76-.24,3.68-.33,5.57-.67,13.1-1,26.23-2.08,39.3-1.07,13.47-8.3,23.18-20.7,28.21-12.2,5-23.79,2.87-33.93-5.75-5-4.22-5.78-9.42-2.41-13.53,3.22-3.9,8-4.08,13.31-.54,13.16,8.83,25,3.09,26-12.71.91-14.25,1.54-28.49,2.28-42.59l-31.21-9.73c0,6.34,0,12.38,0,18.42-.05,4.57.06,9.15-.33,13.71-.51,5.94-4.52,9.63-9.54,9.27-4.84-.34-8.08-4.1-8.14-9.93-.11-12.29,0-24.58,0-37.62l-8.9,5.08c-27,15.29-54.58,15.17-82.31,2.66-13.71-6.2-19.35-22-13.79-35.79a28,28,0,0,1,34.17-16.46c2.47.73,4.9,1.6,7.34,2.47,8.64,3.06,17.07,3,25.49-1.87-4.06-7.44-6.53-15-15-20.22-17.13-10.67-19.16-33.73-5.7-48.77,2.25-2.52,2.49-4.52,1.91-7.84-1-5.55-.33-11.36-.78-17-.19-2.45-.67-5.63-2.28-7.12C424.2,373,417.69,337.25,426.89,297.65c3.48-15,9-29.49,13.54-44.11-4,.51-8.81,1.82-13.57,1.6-14.68-.72-25.57-9.92-29.62-24.23a27.79,27.79,0,0,0-1.1-2.73V217.44c4.33-16.77,18.74-25,30.45-35.37a83,83,0,0,1,46.15-20.32c4.66-.56,6.32-2.47,7.3-6.69,1.74-7.53,4-15,6.2-22.36C493.41,109,512.86,97.76,537,103.5c9.65,2.3,19.28,4.69,28.84,7.38a86.34,86.34,0,0,0,47.6.07c9.54-2.67,19.21-5,28.82-7.36,24.2-6,44,5.38,51,29.42,2.3,7.81,4.63,15.61,6.63,23.49.8,3.14,2.07,4.6,5.47,5,19.78,2.26,36.82,10.53,51.5,23.87,5.73,5.21,11.87,10,17.28,15.55a31.8,31.8,0,0,1,4.39,39c-7.92,12.71-22.67,18.12-37.28,13.67-.92-.28-1.9-.49-3.72-1,2.62,6.52,5.14,12.37,7.32,18.35,7.57,20.86,12.79,42.17,11.38,64.64a47.27,47.27,0,0,1-.39,4.75c-1,6-4.93,9.58-9.84,9.06s-8.35-4.54-7.81-10.77c1.76-20.64-2.51-40.32-9.44-59.51-2.69-7.44-6.51-14.48-9.42-21.84-1.89-4.76-4.8-6.21-9.92-6.2q-95.1.27-190.21.12c-17.08,0-34.18-.09-51.27.11-2,0-5,1.06-5.84,2.56-12.78,23.95-21.49,49.2-21,76.68.49,31.16,16,53.68,42.19,69.44,4.56,2.73,9.39,5,14.53,7.63,6.08-7.71,11.8-15,17.61-22.31,10.4-13,22.09-24.42,37.62-31.34,8.74-3.88,17.43-4.84,26.63-1.92,1.78.56,4.26-.21,6.13-1,2.87-1.28,5.3-3.91,8.24-4.58,5.5-1.24,6.83-4.3,6.23-9.36a83,83,0,0,1-.07-9.61c-6.38-2.87-12.57-5.55-18.66-8.41-15.73-7.38-18-24.3-4.81-35.72,9-7.84,20.24-9,31.38-8.76a96.16,96.16,0,0,1,24.56,3.68,23.6,23.6,0,0,1,17.31,19.4c1.41,8.08-3,16.16-10.73,20.18A129.37,129.37,0,0,1,623,325.16c-4.17,1.49-5.34,3.89-5,8,.3,3.31.06,6.67.06,9.81,4.52,1.4,8.63,2.27,12.39,3.93,4.57,2,6.37,5.9,4.95,10.81-1.33,4.6-5.75,6.84-10.92,5.62-9.33-2.21-18.62-4.19-27.82,2.1,4.94,8.95,6.39,18.31,3.3,28.05a32.65,32.65,0,0,1-15.52,18.84c-4.51,2.59-8.74,5.7-13.09,8.6l.63,1.61c5.63.27,11.28.84,16.92.75,27.29-.42,54.34-2.59,80.45-11.41,21.85-7.41,41.44-18,55.38-37.27,3.87-5.34,9.09-6.34,13.35-3.22,4.57,3.36,5,8.66.57,14.07-4.78,5.81-10.19,11.11-15,16.89-1.27,1.52-1.77,4-2,6.09-.63,6.81-1.12,13.65-1.3,20.49-.06,1.92.54,4.63,1.87,5.68,9.9,7.75,21.06,8.5,32.71,4.81a6.16,6.16,0,0,0,3-3.11c1.19-2.49,1.73-5.32,3-7.76,4.77-9.22,4.3-16.93-1.42-26.63-13.72-23.27-6.64-52.77,15-71.31C793.76,314.12,824,313.13,844.78,328.53Zm6.59,46.94c.27-21.26-18.18-39.8-39.86-40a40.36,40.36,0,0,0-40.85,40.18c-.3,22.27,18,40.12,41.31,40.31C833.12,416.1,851.1,397.65,851.37,375.47Zm-66.84,105c6-15.45,11.46-31.09,17.17-46.66l-20.93-7.65c-5.68,15.62-11.35,30.81-16.68,46.12-2.32,6.62.54,12.52,6.36,14.67A10.67,10.67,0,0,0,784.53,480.52ZM762,232.27c4.3-5.19,4.76-13.07-.2-18-7.58-7.53-15.74-14.55-24-21.32-8.77-7.12-19-11.32-31.38-13.37,1.63,5.87,3.41,10.91,4.36,16.09.82,4.51,2.84,6,7.44,6.18,15,.69,24.9,13,23.4,27.86a7,7,0,0,0,2.72,5.43A13.57,13.57,0,0,0,762,232.27Zm-13.85,257.3c-4.7-10.47-2.52-20.17.78-28.63-11-2.22-21.43-4.34-31.7-6.4-1.79,9-3.73,18.88-5.76,29.13C722.87,488.67,734.87,490.51,748.12,489.57ZM713,233.3c7.48,0,11.08-2.34,11-7s-3.54-6.74-11.22-6.78H467.12c-8.21,0-11.5,2-11.44,7s3.27,6.75,11.7,6.75H713ZM695.83,431.78a14.51,14.51,0,0,0,8.46-14.53c-11.65,4.58-22.81,9.77-34.46,13.35-11.84,3.63-24.17,5.68-36.23,8.39,3.57,4.11,6.94,8.22,10.64,12,1,1,3.22,1.76,4.32,1.3C664.39,445.66,680.3,439.13,695.83,431.78Zm-210-230.54H693.7c-2.06-7.31-4-14-5.87-20.82H598.35c-33.8,0-67.59,0-101.37.12-2.09,0-5.48,1.16-6.05,2.64C488.78,188.86,487.53,194.87,485.81,201.24ZM677.72,506.12c13-15.61,20.25-33.67,20.92-54-13.11,5.29-25.78,11-38.86,15.38-6,2-8.66,4.24-9.38,10.87-2.32,21.53-18.58,36.43-39.48,37.33s-38.31-12.82-42.73-33.8c-.62-2.94-1.42-4.26-4.66-4.81-11.32-1.91-22.55-4.38-33.84-6.47a8.34,8.34,0,0,0-5.05.53C513.41,477,502.3,482.92,490,489.46c4.82,6.63,9.21,14.06,14.89,20.3C550.55,560.17,634.13,558.39,677.72,506.12ZM496.53,162.23H683.11c-3.18-10.53-5.57-20.78-9.41-30.46-3.65-9.12-14-13.68-23.76-11.5s-19.69,4.6-29.4,7.38a109.16,109.16,0,0,1-62.14-.22c-9.5-2.81-19.18-5-28.86-7.11-10.26-2.26-20.79,2.82-24.34,12.48C501.73,142.23,499.46,152.1,496.53,162.23ZM657.21,607.39c.43-19.79.13-39.58.13-60-9.79,3.92-18.82,7.37-27.64,11.22-1.18.51-2,3.06-2.05,4.7-.36,14.07-.49,28.14-.69,42.23-.11,9.14,6,16.37,14.19,16.72C649.67,622.61,657,616.47,657.21,607.39Zm-24-133c.22-13-11.11-24.42-24.23-24.33a24,24,0,1,0,24.23,24.33Zm-47.11-174c13.59,11.95,34.59,11.77,45.93-.15C624.89,289.28,593.84,289.16,586.13,300.33Zm-2.6,83.75c.17-10.1-8.56-17.84-17.44-15.25-6.32,1.85-13.12,4.57-17.82,8.93A261.57,261.57,0,0,0,521.36,407c-12.07,15.29-25.75,27.85-44.6,34.3-9.46,3.23-13.15,12.07-9.74,20.54,3.08,7.68,11.62,11.41,20.4,7.75a192.42,192.42,0,0,0,27.07-13.5c15.53-9.56,26.07-24.25,37-38.4,6.62-8.57,13.86-16.26,23.93-21C580.93,394.17,583.28,389.17,583.53,384.08Zm-12.84,73.24c3.69-5.05,7-10.38,10.87-16.31-7.56-.42-15-.88-22.43-1.22a3.84,3.84,0,0,0-2.65.94c-4.24,4.79-8.36,9.68-13.12,15.26,8.25,1.29,15.44,2.56,22.67,3.39A6,6,0,0,0,570.69,457.32Zm-68.11,75.74-16.19-14.53c-13.83,8.23-29.27,8.18-45,1.48a13.53,13.53,0,0,0-4-.93c-5.23-.46-8.86,1.9-10.67,6.71s-.15,9.09,4.11,11.84a39.75,39.75,0,0,0,8.69,3.75C461.78,549,482.72,546.46,502.58,533.06ZM472.93,180c-1.74.2-2.5.24-3.24.38-22.62,4.3-37.95,19.76-53.05,35.29-3.66,3.76-3.27,9.11-.76,14s6.72,7.29,11.9,7.77c5.9.55,10.46-3.08,10.22-7.6-.87-16.8,8-26.69,25-28.23,1.67-.15,4.15-1.6,4.64-3C469.68,192.74,471.07,186.75,472.93,180Z"/><path d="M872.61,586.83a77.55,77.55,0,0,1-7.45,2.63A77.55,77.55,0,0,0,872.61,586.83Z"/><path d="M864.63,589.6c-2.45.72-4.91,1.3-7.4,1.78C859.72,590.9,862.18,590.31,864.63,589.6Z"/><path class="cls-4" d="M811.51,335.43c21.68.24,40.13,18.78,39.86,40-.27,22.18-18.25,40.63-39.4,40.45-23.33-.19-41.61-18-41.31-40.31A40.36,40.36,0,0,1,811.51,335.43Z"/><path d="M802,607.62c9.89,9,9.7,22.25,0,31.44-8.55,8.11-19.41,11.38-30.6,13.48-6.79,1.29-13.78,1.53-17.64,1.93-17.7-.22-32-2.11-45.18-8.92a42.2,42.2,0,0,1-8.82-6c-10.67-9.57-10.62-23.06,0-32.7,7.28-6.59,16.21-9.79,25.61-11.89,21.22-4.78,42.22-4.2,62.56,4A47.72,47.72,0,0,1,802,607.62Zm-17.46,21.86c2.57-1.4,4.42-4.15,6.61-6.27-2.24-2.09-4.14-5.21-6.77-6.09-8-2.72-16.16-5.5-24.48-6.55-14.91-1.85-29.72-.49-43.4,6.53-2.62,1.35-4.48,4.14-6.69,6.26,2.25,2.09,4.19,4.75,6.81,6.18,10.56,5.74,22.19,6.8,34,6.93C762.37,636.29,774,635.23,784.56,629.48Z"/><path class="cls-3" d="M791.17,623.21c-2.19,2.12-4,4.87-6.61,6.27-10.54,5.75-22.19,6.81-34,7-11.77-.13-23.4-1.19-34-6.93-2.62-1.43-4.56-4.09-6.81-6.18,2.21-2.12,4.07-4.91,6.69-6.26,13.68-7,28.49-8.38,43.4-6.53,8.32,1,16.47,3.83,24.48,6.55C787,618,788.93,621.12,791.17,623.21Z"/><path class="cls-5" d="M801.7,433.86c-5.71,15.57-11.21,31.21-17.17,46.66A10.67,10.67,0,0,1,770.45,487c-5.82-2.15-8.68-8.05-6.36-14.67,5.33-15.31,11-30.5,16.68-46.12Z"/><path class="cls-5" d="M761.77,214.31c5,4.89,4.5,12.77.2,18a13.57,13.57,0,0,1-17.69,2.91,7,7,0,0,1-2.72-5.43c1.5-14.88-8.42-27.17-23.4-27.86-4.6-.22-6.62-1.67-7.44-6.18-1-5.18-2.73-10.22-4.36-16.09,12.35,2,22.61,6.25,31.38,13.37C746,199.76,754.19,206.78,761.77,214.31Z"/><path class="cls-1" d="M748.9,460.94c-3.3,8.46-5.48,18.16-.78,28.63-13.25.94-25.25-.9-36.68-5.9,2-10.25,4-20.09,5.76-29.13C727.47,456.6,737.94,458.72,748.9,460.94Z"/><path class="cls-5" d="M723.91,226.3c.12,4.66-3.48,7-11,7H467.38c-8.43,0-11.65-1.88-11.7-6.75s3.23-7,11.44-7H712.69C720.37,219.56,723.78,221.61,723.91,226.3Z"/><path class="cls-6" d="M704.29,417.25a14.51,14.51,0,0,1-8.46,14.53c-15.53,7.35-31.44,13.88-47.27,20.54-1.1.46-3.37-.33-4.32-1.3-3.7-3.81-7.07-7.92-10.64-12,12.06-2.71,24.39-4.76,36.23-8.39C681.48,427,692.64,421.83,704.29,417.25Z"/><path d="M694.58,267.31c.42,2.54.45,5.12.67,7.87a72.92,72.92,0,0,1-.79,7.5c-1,4.81-4.38,7.09-9.05,6.83-4.39-.27-7.58-2.75-7.93-7.4a112.6,112.6,0,0,1-.11-14.23c.26-4.89,3.33-7.69,8-8C690.41,259.63,693.74,262.22,694.58,267.31Z"/><path class="cls-7" d="M693.7,201.24H485.81c1.72-6.37,3-12.38,5.12-18.06.57-1.48,4-2.64,6.05-2.64,33.78-.17,67.57-.12,101.37-.12h89.48C689.74,187.21,691.64,193.93,693.7,201.24Z"/><path class="cls-1" d="M698.64,452.14c-.67,20.31-7.9,38.37-20.92,54-43.59,52.27-127.17,54-172.85,3.64-5.68-6.24-10.07-13.67-14.89-20.3,12.32-6.54,23.43-12.51,34.66-18.29a8.34,8.34,0,0,1,5.05-.53c11.29,2.09,22.52,4.56,33.84,6.47,3.24.55,4,1.87,4.66,4.81,4.42,21,21.88,34.68,42.73,33.8s37.16-15.8,39.48-37.33c.72-6.63,3.37-8.85,9.38-10.87C672.86,463.13,685.53,457.43,698.64,452.14Z"/><path class="cls-5" d="M683.11,162.23H496.53c2.93-10.13,5.2-20,8.67-29.43,3.55-9.66,14.08-14.74,24.34-12.48,9.68,2.12,19.36,4.3,28.86,7.11a109.16,109.16,0,0,0,62.14.22c9.71-2.78,19.55-5.15,29.4-7.38s20.11,2.38,23.76,11.5C677.54,141.45,679.93,151.7,683.11,162.23Z"/><path class="cls-1" d="M657.34,547.35c0,20.46.3,40.25-.13,60-.2,9.08-7.54,15.22-16.06,14.83-8.18-.35-14.3-7.58-14.19-16.72.2-14.09.33-28.16.69-42.23,0-1.64.87-4.19,2.05-4.7C638.52,554.72,647.55,551.27,657.34,547.35Z"/><path class="cls-8" d="M609,450c13.12-.09,24.45,11.29,24.23,24.33A24,24,0,1,1,609,450Z"/><path class="cls-5" d="M632.06,300.18c-11.34,11.92-32.34,12.1-45.93.15C593.84,289.16,624.89,289.28,632.06,300.18Z"/><path class="cls-1" d="M566.09,368.83c8.88-2.59,17.61,5.15,17.44,15.25-.25,5.09-2.6,10.09-8.12,12.66-10.07,4.71-17.31,12.4-23.93,21-10.92,14.15-21.46,28.84-37,38.4a192.42,192.42,0,0,1-27.07,13.5c-8.78,3.66-17.32-.07-20.4-7.75-3.41-8.47.28-17.31,9.74-20.54,18.85-6.45,32.53-19,44.6-34.3a261.57,261.57,0,0,1,26.91-29.26C553,373.4,559.77,370.68,566.09,368.83Z"/><path class="cls-6" d="M581.56,441c-3.9,5.93-7.18,11.26-10.87,16.31a6,6,0,0,1-4.66,2.06c-7.23-.83-14.42-2.1-22.67-3.39,4.76-5.58,8.88-10.47,13.12-15.26a3.84,3.84,0,0,1,2.65-.94C566.57,440.13,574,440.59,581.56,441Z"/><path d="M541.2,274.66l.44,0a67.16,67.16,0,0,1-.93,8.21c-1.13,4.71-4.51,6.93-9.23,6.52-4.46-.41-7.36-3.08-7.73-7.61a99.68,99.68,0,0,1-.14-13.05c.25-5.42,3.6-8.92,8.42-8.9,5.41,0,8.37,3.12,9.13,8.29A47.1,47.1,0,0,1,541.2,274.66Z"/><path class="cls-5" d="M486.39,518.53l16.19,14.53c-19.86,13.4-40.8,15.91-63.06,8.32a39.75,39.75,0,0,1-8.69-3.75c-4.26-2.75-6-6.9-4.11-11.84s5.44-7.17,10.67-6.71a13.53,13.53,0,0,1,4,.93C457.12,526.71,472.56,526.76,486.39,518.53Z"/><path class="cls-5" d="M469.69,180.33c.74-.14,1.5-.18,3.24-.38-1.86,6.8-3.25,12.79-5.27,18.55-.49,1.42-3,2.87-4.64,3-17,1.54-25.89,11.43-25,28.23.24,4.52-4.32,8.15-10.22,7.6-5.18-.48-9.37-2.88-11.9-7.77s-2.9-10.2.76-14C431.74,200.09,447.07,184.63,469.69,180.33Z"/></g><g id="Layer_2" data-name="Layer 2"><text class="cls-9" transform="translate(125.39 847.05)">snooopy<tspan class="cls-10" x="693.24" y="0">.xyz</tspan></text></g></svg>